<svg xmlns="http://www.w3.org/2000/svg" viewBox="0 0 138.99 59.75"><defs><style>.cls-1{fill:#4CAF50;}.cls-2{fill:#8BC34A;}</style></defs><title>资源 9</title><g id="图层_2" data-name="图层 2"><g id="图层_7" data-name="图层 7"><path fill="#4CAF50" d="M90.4,29.18A113.28,113.28,0,0,0,58.79,15.33C35.11,9.26,15.82,13.88,1.45,29L0,27.66C14.7,12.15,35.22,7.22,59.34,13.41A115.45,115.45,0,0,1,91.53,27.52Z"/></g><g id="图层_8" data-name="图层 8"><path class="cls-1" d="M91.47,26.29S73.37,15.2,88.9,3.74s19.25,6.31,20.36,15c0,0,20.49-25.46,28.36-5s-20.47,18.72-20.47,18.72,18.47,16.24.3,25.39-16.57-17.48-16.57-17.48S87.19,64.08,74,45.73,91.47,26.29,91.47,26.29Z"/><path fill="#8BC34A" d="M97.88,0V2c6,0,8.4,9.24,9.39,17l.59,4.66L110.81,20c2.74-3.4,11.26-12.21,17.7-12.21,3.14,0,5.5,2.18,7.23,6.67s1.66,7.84-.07,10.35c-3.62,5.27-13.88,5.68-16.94,5.68-.91,0-1.47,0-1.47,0l-5.83-.36L115.83,34c2.35,2.07,8.28,8.68,7.55,14.37-.39,3-2.69,5.64-6.83,7.73a13.56,13.56,0,0,1-5.88,1.7A5.43,5.43,0,0,1,106.51,56c-3.52-3.73-3.82-12.45-3.64-15.5l.51-8.47-4.24,7.35c-1.82,3.15-7.93,11.33-14.29,11.33-3.19,0-6.29-2.06-9.2-6.13-2.75-3.83-3.56-7-2.4-9.34,2.57-5.24,14.07-6.78,18.29-6.94l6.6-.24-5.62-3.47c-.08,0-7.67-4.79-7.91-10.64-.12-2.94,1.72-5.83,5.47-8.6,3-2.22,5.63-3.34,7.8-3.34V0m0,0c-2.44,0-5.4,1.09-9,3.74C73.37,15.2,91.47,26.29,91.47,26.29S60.86,27.38,74,45.73c3.67,5.12,7.39,7,10.83,7,8.9,0,16-12.33,16-12.33s-1.16,19.39,9.79,19.39a15.35,15.35,0,0,0,6.78-1.91c18.17-9.14-.3-25.39-.3-25.39s.6,0,1.59,0c5.87,0,25.6-1.27,18.87-18.75-2.26-5.86-5.55-8-9.1-8-8.83,0-19.26,13-19.26,13C108.4,12.05,106,0,97.88,0Z"/><line class="cls-2" x1="97.73" y1="18.99" x2="103.74" y2="26.48"/><rect class="cls-2" x="99.73" y="17.93" width="2" height="9.6" transform="translate(7.99 68.15) rotate(-38.81)"/><line class="cls-2" x1="94.73" y1="33.99" x2="102.74" y2="29.48"/><rect class="cls-2" x="94.13" y="30.74" width="9.2" height="2" transform="translate(-2.86 52.59) rotate(-29.42)"/><line class="cls-2" x1="109.73" y1="37.99" x2="105.74" y2="30.48"/><rect class="cls-2" x="106.73" y="29.98" width="2" height="8.51" transform="translate(-3.49 54.42) rotate(-27.91)"/><line class="cls-2" x1="114.73" y1="22.99" x2="106.74" y2="27.48"/><rect class="cls-2" x="106.16" y="24.24" width="9.15" height="2" transform="translate(1.81 57.41) rotate(-29.29)"/></g></g></svg>